<svg width="16" height="16" viewBox="0 0 16 16" fill="none" xmlns="http://www.w3.org/2000/svg">
  <path fill-rule="evenodd" clip-rule="evenodd" d="M5.4 0.25C5.0241 0.25 4.70626 0.528273 4.65658 0.900877L4.34336 3.25L3 3.25L2.99954 3.25L1 3.25C0.585787 3.25 0.25 3.58579 0.25 4C0.25 4.41421 0.585786 4.75 1 4.75H2.30062L3.02106 15.0523C3.04854 15.4453 3.37532 15.75 3.76923 15.75H12.2308C12.6247 15.75 12.9515 15.4453 12.9789 15.0523L13.6994 4.75H15C15.4142 4.75 15.75 4.41422 15.75 4C15.75 3.58579 15.4142 3.25 15 3.25L13.0013 3.25L13 3.25L11.6566 3.25L11.3434 0.900877C11.2937 0.528273 10.9759 0.25 10.6 0.25H5.4ZM10.1434 3.25L5.85664 3.25L6.05664 1.75H9.94336L10.1434 3.25ZM4.46861 14.25L3.80428 4.75H12.1957L11.5314 14.25H4.46861ZM7 11.25C6.58579 11.25 6.25 11.5858 6.25 12C6.25 12.4142 6.58579 12.75 7 12.75H9C9.41421 12.75 9.75 12.4142 9.75 12C9.75 11.5858 9.41421 11.25 9 11.25H7Z" fill="#666" />
</svg>