<svg width="16" height="16" viewBox="0 0 16 16" fill="none" xmlns="http://www.w3.org/2000/svg">
<path fill-rule="evenodd" clip-rule="evenodd" d="M11.4697 0.46967C11.7626 0.176777 12.2374 0.176777 12.5303 0.46967L15.5303 3.46967C15.8232 3.76256 15.8232 4.23744 15.5303 4.53033L13.531 6.52961C13.5308 6.52985 13.5306 6.53009 13.5303 6.53033C13.5301 6.53057 13.5299 6.53081 13.5296 6.53105L6.81066 13.25H15V14.75H5H3H2C1.58579 14.75 1.25 14.4142 1.25 14V11C1.25 10.8011 1.32902 10.6103 1.46967 10.4697L9.46942 2.46992C9.4695 2.46984 9.46959 2.46975 9.46967 2.46967C9.46976 2.46958 9.46984 2.4695 9.46992 2.46941L11.4697 0.46967ZM10 4.06066L2.75 11.3107V13.25H3H4.68934L11.9393 6L10 4.06066ZM13 4.93934L11.0607 3L12 2.06066L13.9393 4L13 4.93934Z" fill="#666"/>
</svg>
